<svg xmlns="http://www.w3.org/2000/svg" width="528" height="188" fill="none"><path fill="#fff" d="M51.84 126.536c-6.827 0-13.141-1.195-18.944-3.584-5.717-2.389-10.752-5.717-15.104-9.984A45.446 45.446 0 0 1 7.68 98.12c-2.39-5.717-3.584-11.861-3.584-18.432 0-6.57 1.195-12.672 3.584-18.304 2.39-5.717 5.717-10.667 9.984-14.848 4.267-4.267 9.259-7.552 14.976-9.856 5.803-2.39 12.117-3.584 18.944-3.584 6.741 0 12.97 1.195 18.688 3.584 5.803 2.304 10.837 5.59 15.104 9.856 4.352 4.181 7.723 9.13 10.112 14.848 2.39 5.632 3.584 11.776 3.584 18.432 0 6.57-1.195 12.715-3.584 18.432-2.39 5.632-5.717 10.581-9.984 14.848-4.267 4.181-9.301 7.467-15.104 9.856-5.717 2.389-11.904 3.584-18.56 3.584zm-.256-18.304c5.376 0 10.07-1.195 14.08-3.584 4.01-2.389 7.125-5.717 9.344-9.984 2.304-4.267 3.456-9.259 3.456-14.976 0-5.632-1.152-10.581-3.456-14.848-2.219-4.267-5.376-7.552-9.472-9.856-4.01-2.39-8.661-3.584-13.952-3.584-5.376 0-10.112 1.195-14.208 3.584-4.01 2.304-7.125 5.59-9.344 9.856-2.219 4.267-3.328 9.216-3.328 14.848 0 5.717 1.11 10.71 3.328 14.976 2.219 4.267 5.333 7.595 9.344 9.984 4.096 2.389 8.832 3.584 14.208 3.584zM111.829 125V34.632h14.336l31.872 49.792 31.872-49.792h14.464V125h-20.096V74.952l-19.584 30.592h-13.312l-19.584-30.592V125h-19.968zm109.875 0V34.632h64.256v17.28H241.8v18.56h40.32V87.24H241.8v20.352h44.8V125h-64.896zm78.75 0V34.632h14.08l42.88 54.912V34.632h20.096V125h-14.72l-42.24-54.144V125h-20.096zm132.001-90.346v.088-.088zm-2.285 41.397.176-.44v-.351c-.059-.059-.088-.059-.088 0l-.176.351c-.059.352-.029.498.088.44zm-1.055 3.252c0 .058.03.088.088.088v-.088c0-.059 0-.059 0 0h-.088zm-.263 1.318c0 .059 0 .059 0 0zm-24.961 52.647c.117-.176.263-.381.439-.616.059-.117.059-.205 0-.263h-.176c-.175 0-.322.117-.439.351-.059.059-.029.176.088.352l.088.176zm34.892-92.725c-.058.059-.117.176-.176.352v.175c.059.059.118.059.176 0h.176c.234-.117.293-.293.176-.527-.059-.176-.176-.176-.352 0zm-4.306 21.709c-.059.293-.206.732-.44 1.318a8.936 8.936 0 0 0-.176.616c-.058.292-.117.498-.175.615-.411 1.289-.586 1.904-.528 1.846.059-.06-.088.468-.439 1.581-.586 1.934-.791 2.666-.615 2.198a.668.668 0 0 0-.088.263c0 .293-.088.674-.264 1.143a12.73 12.73 0 0 1-.264 1.055c-.058.175-.176.674-.351 1.494-.059.41-.205.908-.44 1.494a11.306 11.306 0 0 0-.615 2.197.668.668 0 0 1-.088.264v.352c-.058.41-.205.732-.439.966-.176.176-.235.352-.176.528.059.058.059.205 0 .44a6.485 6.485 0 0 0-.264 1.23l-.263.527-.088.088a29.188 29.188 0 0 1-.176-.176c0-.059.029-.147.088-.264.058-.117.058-.205 0-.263h-.088a6.322 6.322 0 0 1-.264.703l-1.406 6.064c.059-.293-.381 1.553-1.318 5.537-.059.235 0 .381.175.44.176.058.147.117-.087.176-.118 0-.176.058-.176.175l.088.264c.058.176 0 .264-.176.264l-.088.351c0 .059.059.118.176.176-.235.059-.323.147-.264.264 0 .469.029.732.088.79v.176l-.088.088c0-.058-.029-.088-.088-.088-.058-.117-.088-.117-.088 0-.058.235-.117.41-.176.528 0 .234-.087.674-.263 1.318.117-.293.029.235-.264 1.582-.058.235-.146.645-.264 1.231l-.263 1.318c-.117.41-.147.703-.088.879 0 .117-.029.264-.088.439-.234.645-.41 1.29-.527 1.934-.059.586-.088.85-.088.791.058.234.029.381-.088.44-.176.585-.264.937-.264 1.054 0 .293-.058.498-.176.615a.678.678 0 0 1-.087.264 74.084 74.084 0 0 1-.44 2.197c-.293 1.231-.439 1.875-.439 1.934a67.96 67.96 0 0 1-.264 1.23c-.117.528-.234.938-.352 1.231-.058.351-.146.527-.263.527l-.264.615c-.059.293-.176.85-.352 1.67-.175.762-.468 1.934-.878 3.516l-.528 1.846-.088.263c.059.176 0 .557-.175 1.143a177.365 177.365 0 0 0-1.143 3.164c-.059.234-.176.586-.352 1.055-.175.468-.293.82-.351 1.054-.235.586-.41.997-.527 1.231l-.176.615c0 .234-.088.352-.264.352-.117 0-.205.058-.264.175-.527.821-.791 1.319-.791 1.495a9.546 9.546 0 0 0-.263.615 14.04 14.04 0 0 0-.264.703c0 .176-.117.264-.352.264a.773.773 0 0 0-.351-.088 1.42 1.42 0 0 0-.352-.088c-.703-.176-1.084.088-1.142.791v.351c-.059.235-.176.352-.352.352s-.381.146-.615.439c-.117.176-.205.264-.264.264-.351-.176-.527-.293-.527-.351 0-.059-.029-.118-.088-.176-.059-.117-.146-.147-.264-.088l-.351.351c-.176.293-.322.469-.44.528-.175.234-.38.322-.615.263-.058-.058-.176-.087-.351-.087a1.44 1.44 0 0 0-.44-.088c-.117-.059-.176-.176-.176-.352 0-.117.059-.264.176-.439.117-.118.117-.264 0-.44-.176-.293-.293-.469-.351-.527-.176-.235-.381-.235-.616 0-.293.351-.41.527-.351.527l.527-1.582c.059-.351.059-.644 0-.879-.058-.293-.176-.468-.351-.527-.118 0-.176-.029-.176-.088-.352-.234-.498-.557-.44-.967l.088-.263c0-.293-.146-.381-.439-.264-.059 0-.147.058-.264.176a6.724 6.724 0 0 1-.791.351c-.234.059-.439.235-.615.528l-.264.351h-.088c-.058 0-.088-.029-.088-.088a.61.61 0 0 0-.175-.615c-.118-.117-.118-.234 0-.352.117-.058.205-.175.263-.351 0-.117-.029-.205-.088-.264-.117-.058-.205-.176-.263-.351-.059-.235-.117-.381-.176-.44-.176-.117-.205-.322-.088-.615.352-.645.469-.908.352-.791.175-.234.146-.41-.088-.527-.117-.118-.176-.235-.176-.352.352-1.172.586-1.875.703-2.109 0-.059.029-.176.088-.352l.615-2.197v-.527l.088-.704c.117-.234.088-.439-.088-.615-.176-.117-.234-.293-.176-.527.118-.176.088-.322-.087-.44-.235-.117-.352-.351-.352-.703v-.176c0-.175-.029-.293-.088-.351-.117-.059-.264-.029-.439.088-.118.058-.235.293-.352.703-.059.058-.117.088-.176.088-.058 0-.088-.059-.088-.176 0-.117.03-.352.088-.703 0-.293.03-.527.088-.703.352-1.289.528-2.373.528-3.252.058-.293.146-.586.263-.879l.088-.44c.117-.41.205-.644.264-.703v-.175c0-.176.058-.411.176-.704a3.74 3.74 0 0 0 .087-.615l.088-.088c.059-.234.147-.615.264-1.142.117-.528.205-.908.264-1.143.058-.117.058-.205 0-.264-.059-.058-.059-.263 0-.615.058-.351.175-.791.351-1.318V106.9c0-.058.029-.468.088-1.23.117-.586.234-.996.352-1.231 0-.175.088-.556.263-1.142.118-.41.147-.791.088-1.143 0-.117.059-.381.176-.791.117-.41.176-.761.176-1.054a.94.94 0 0 1 .176-.528c.117-.293.146-.498.087-.615v-.176c.176-.468.323-1.084.44-1.846.117-.878.234-1.523.351-1.933l.352-2.11c.293-1.288.41-1.874.352-1.757.058-.469.205-1.143.439-2.022.059-.234.205-.937.439-2.11.176-.585.293-.995.352-1.23-.059.059.176-.966.703-3.076.703-2.93.996-4.277.879-4.043l.088-.351c.117-.938.264-1.67.439-2.198.118-.351.176-.615.176-.79.059-.47.176-1.055.352-1.758.234-.82.381-1.377.439-1.67.117-.352.264-.88.44-1.582.175-.762.293-1.319.351-1.67.059-.41.059-.733 0-.967-.058-.059-.088-.117-.088-.176.118-1.406.293-2.373.528-2.9.234-.528.293-.938.175-1.23.176-1.641.235-2.374.176-2.198.117-.351.117-.645 0-.879-.058-.059-.058-.205 0-.44.117-.937.264-1.874.44-2.812.058-.293.117-.527.176-.703.175-.293.205-.732.087-1.318-.117-.645-.117-1.201 0-1.67.235-1.055.498-1.963.791-2.725.059-.117.118-.293.176-.527 0-.234.029-.381.088-.44.059-.234.147-.966.264-2.197 0-.293.146-.79.439-1.494.059-.176.088-.41.088-.703.059-.528.205-.938.44-1.23.117-.118.234-.323.351-.616.117-.351.205-.586.264-.703.058-.117.146-.264.263-.44.118-.292.206-.468.264-.527a1.56 1.56 0 0 0 .176-.703c-.059-.176.029-.293.264-.352.468-.058.82-.087 1.054-.087-.058 0 .44-.088 1.494-.264.235-.059.381-.234.44-.527.058-.352.264-.645.615-.88.176-.117.293-.234.352-.35a2.24 2.24 0 0 1 .527-.528c-.059.058.146-.059.615-.352.293-.175.44-.351.44-.527.058-.293.234-.322.527-.088.059.059.059.117 0 .176-.41.586-.498.761-.264.527-.175.117-.117.176.176.176h.791c.059 0 .117-.03.176-.088h.703c.293-.176.498-.41.615-.703l.352-.352c.117-.175.205-.322.264-.44.058-.175.234-.292.527-.35a1.56 1.56 0 0 1 .703-.177c.352-.058.557-.117.615-.175a11.84 11.84 0 0 1 1.055-.44l1.055-.351c.41-.235.673-.469.791-.703.058 0 .117-.088.175-.264.176-.234.44-.44.791-.615.235.293.352.586.352.879 0 .058.059.087.176.087.234 0 .644-.029 1.23-.087.117 0 .176.029.176.087a.853.853 0 0 0 .527.352.678.678 0 0 0 .264.088c.117.234.41.469.879.703.176.117.234.234.176.352-.293.703-.352.937-.176.703-.059.058-.029.176.088.351l.264.264a.44.44 0 0 1 0 .527c-.176.41-.293.733-.352.967-.059.235.029.352.264.352.468-.059.761-.147.879-.264.058-.117.117-.176.175-.176.293-.234.498-.205.616.088.058.176.205.264.439.264.117-.059.176-.03.176.088 0 .058-.059.351-.176.879 0 .117.059.175.176.175.176-.058.293-.088.351-.088.293-.058.44-.058.44 0 .293.294.439.499.439.616-.058.586-.176 1.025-.351 1.318-.059.176-.235.557-.528 1.143-.234.468-.439.85-.615 1.142 0 .059-.029.117-.088.176l-.263 1.23v.088h.087a5.6 5.6 0 0 0 .528-.615c.117-.176.234-.205.351-.088l.088.088c.293.117.41.234.352.352-.059.117-.088.322-.088.615.058.234.058.41 0 .527.058-.293-.088.03-.44.967-.527 1.406-.849 2.432-.966 3.076-.059.059-.293 1.055-.703 2.989-.235.879-.323 1.23-.264 1.054-.117.352-.235.674-.352.967-.117.352-.381 1.29-.791 2.813-.117.292-.263.439-.439.439-.059 0-.147.117-.264.352-.644 1.23-1.025 2.197-1.142 2.9zm55.019 10.986c.117-.293.205-.469.264-.527.058-.059.058-.117 0-.176-.059 0-.088.03-.088.088a1.387 1.387 0 0 0-.352.527c-.41.703-.527.967-.351.791l.527-.703zm-3.955 6.592v-.088c.059-.117.088-.146.088-.088h-.088c-.059.118-.059.176 0 .176zm-1.23 2.11-.088.087c0 .059.029.059.088 0v-.088zm-33.663-21.358c0-.176-.058.264-.175 1.318 0 .176.029.293.088.352l.175.088c.176-.176.293-.498.352-.967 0-.117-.088-.264-.264-.44-.058-.058-.117-.175-.176-.351zm72.598-58.184h-.088l-.088.176h.088l.088-.176zm2.461 10.196a8.58 8.58 0 0 0-.615.703l-.088.263c0 .118.088.118.264 0h.087c.352-.117.557-.38.616-.79.058-.293-.03-.352-.264-.176zm-28.213 47.812c-1.758 2.871-2.519 4.16-2.285 3.867-.176.176-.293.323-.352.44-.234.527-.586 1.172-1.054 1.934-.586.937-.967 1.581-1.143 1.933-.176.234-.674 1.113-1.494 2.637-.41.703-.908 1.523-1.494 2.46a33.482 33.482 0 0 0-2.197 3.868l-.264.527a3.99 3.99 0 0 0-.352.528c-.41.761-.791 1.347-1.142 1.757-.352.293-.528.586-.528.88 0 .175-.117.439-.351.79a51.029 51.029 0 0 0-1.231 2.198l-.615.879c-.058.117-.117.146-.176.087v-.175c0-.118.088-.293.264-.528.117-.175.176-.293.176-.351v-.088h-.088l-.791 1.318c.117-.234-.85 1.524-2.9 5.274-1.465 2.636-2.432 4.423-2.901 5.361l-2.637 4.834c.176-.234-.673 1.406-2.548 4.922-.235.41-.293.674-.176.791.176.176.117.263-.176.263-.117 0-.205.088-.264.264-.058.41-.117.615-.175.615-.059.293-.147.44-.264.44-.059 0-.205.205-.44.615 0 .059.03.147.088.264-.234.117-.41.322-.527.615-.293.82-.41 1.289-.352 1.406l-.175.264-.088.176v-.176c0-.234-.059-.234-.176 0-.234.41-.381.703-.439.879-.176.41-.586 1.201-1.231 2.373.059-.059-.41.879-1.406 2.812l-1.143 2.286a83.81 83.81 0 0 1-1.054 2.285c-.352.703-.586 1.23-.704 1.582a2.967 2.967 0 0 1-.351.791 5.978 5.978 0 0 0-.352.615l-15.468 25.664-1.67-28.213a32.411 32.411 0 0 0-.352-3.252c-.176-1.113-.264-1.64-.264-1.582-.175-.41-.205-.674-.087-.791-.059-1.172-.118-1.875-.176-2.109-.176-.586-.235-.996-.176-1.231v-.615c-.352-2.695-.527-4.16-.527-4.394l-.528-3.868c0-.527-.088-1.318-.263-2.373a522.008 522.008 0 0 0-.264-2.46c-.059-.704-.029-1.085.088-1.143a47.61 47.61 0 0 1-.088-1.23c-.059-.587-.205-1.7-.44-3.34-.117-1.231-.351-3.575-.703-7.032a28.776 28.776 0 0 1-.175-1.933 39.972 39.972 0 0 0-.176-1.934c0-.234-.029-.38-.088-.44-.117-.292-.205-1.054-.264-2.285-.176-3.105-.293-5.214-.351-6.328.058.703-.03-.732-.264-4.306a70.64 70.64 0 0 1-.088-2.55c0-.058-.029-.497-.088-1.317-.117-.47-.088-.704.088-.704.117-.058.176-.234.176-.527.117-1.7.146-2.695.088-2.988 0-.293-.03-.733-.088-1.319 0-.586-.029-1.054-.088-1.406-.059-.41.059-.615.352-.615.058 0 .175.03.351.088h.352c.703 0 .908-.674.615-2.022a6.627 6.627 0 0 1-.088-.615c-.059-.469 0-.732.176-.791.176-.059.293-.41.351-1.055.059-.351.118-.527.176-.527.41.117.645.264.703.44 0 .117.03.205.088.263.117.176.205.205.264.088.117-.117.176-.38.176-.791.058-.586.117-.996.175-1.23.059-.41.235-.616.528-.616h.791c.117.059.234.235.351.528a2.2 2.2 0 0 1 0 .878c0 .352.059.645.176.88.293.468.469.761.527.878.352.41.557.323.616-.263.117-.762.175-1.084.175-.967.118 1.7.176 2.695.176 2.988.059.645.176 1.201.352 1.67.176.527.381.82.615.879.059 0 .117.03.176.088.41.293.674.82.791 1.582l.088.615c.117.528.293.645.527.352.059-.059.147-.205.264-.44.234-.527.41-.879.527-1.054.176-.176.293-.557.352-1.143v-.352c.058-.175.088-.293.088-.351 0-.059.029-.088.087-.088l.088.176c.059.41.205.762.44 1.055.117.117.146.292.088.527v.79c0 .294.058.47.175.528.118.059.264.235.44.528.117.351.234.585.351.703.235.175.352.556.352 1.142-.059 1.348-.059 1.934 0 1.758-.059.41.059.703.352.879.175.058.263.205.263.44.176 2.284.264 3.69.264 4.218 0 .176.029.44.088.791.058.469.117 1.201.176 2.197l.263 2.11c0 .176.059.498.176.967.176.879.264 1.347.264 1.406 0 .469.117.79.351.967.235.234.352.556.352.966 0 .352.088.586.264.704.293.175.527.615.703 1.318-.059-.176-.03-.059.088.352.058.292.117.468.175.527.176.058.293-.03.352-.264.058-.176.088-.674.088-1.494 0-.117.029-.205.088-.264.058 0 .117.059.175.176 0 .293.088.762.264 1.406.117.586.176 1.055.176 1.407.293 2.578.586 4.629.879 6.152.117.41.176.85.176 1.318.527-.996.908-1.67 1.142-2.021.352-.645.82-1.553 1.406-2.725.704-1.347 1.202-2.256 1.495-2.724 2.753-5.098 3.984-7.412 3.691-6.944l.352-.615c.82-1.7 1.494-2.988 2.021-3.867a22.32 22.32 0 0 0 .791-1.406c.352-.762.879-1.758 1.582-2.989a236.793 236.793 0 0 1 1.758-2.9c.293-.586.791-1.524 1.494-2.813.938-1.699 1.465-2.636 1.582-2.812.41-.762.645-1.348.703-1.758.059-.059.088-.146.088-.264 1.172-2.402 2.051-4.042 2.637-4.922.644-.937.996-1.64 1.054-2.109 1.348-2.812 1.963-4.101 1.846-3.867.352-.586.557-1.055.615-1.406 0-.176.118-.469.352-.88 1.348-2.46 2.197-4.042 2.549-4.745.293-.469.527-.88.703-1.23.41-.528.762-1.26 1.055-2.198.41-1.172.82-2.139 1.23-2.9 1.113-1.875 2.109-3.457 2.988-4.747.176-.175.352-.439.528-.79.175-.352.322-.616.439-.791.293-.41.938-1.641 1.934-3.692.234-.469.761-1.289 1.582-2.46.234-.352.469-.763.703-1.231.469-.938.937-1.612 1.406-2.022.235-.234.527-.586.879-1.055.41-.585.674-.966.791-1.142.176-.176.41-.469.703-.879.293-.41.528-.674.703-.791.293-.41.528-.82.703-1.23.118-.293.293-.47.528-.528.527-.058.967-.058 1.318 0-.117-.058.469-.205 1.758-.44.293-.058.586-.35.879-.878a4.034 4.034 0 0 1 1.406-1.406c.293-.235.527-.44.703-.616.293-.351.615-.644.967-.879-.059.059.293-.146 1.055-.615.41-.234.703-.527.879-.879.293-.468.498-.498.615-.088.058.118.029.205-.088.264-.059.059-.176.234-.352.527-.117.235-.234.381-.351.44-.352.234-.352.351 0 .351.176 0 .498-.029.967-.087h.351c.41-.06.645-.088.703-.088.41-.293.791-.645 1.143-1.055l.615-.615c.293-.293.498-.528.615-.703.235-.293.557-.528.967-.704.352-.117.645-.175.879-.175.41-.059.703-.147.879-.264.352-.234.85-.469 1.494-.703.703-.234 1.201-.44 1.494-.615.645-.293 1.143-.645 1.494-1.055 0-.059.118-.205.352-.44A6.31 6.31 0 0 1 524.74.466c0 .527-.117 1.055-.351 1.582-.059.117 0 .176.175.176a14.84 14.84 0 0 1 1.407-.176c.175 0 .234.058.175.176-.058.234.059.44.352.615.059.058.088.117.088.176 0 .41.176.82.527 1.23.059.117 0 .322-.175.615l-.264.528c-.117.293-.264.498-.44.615-.117.117-.175.293-.175.527 0 .293.029.498.087.616 0 .234-.117.498-.351.79-.586.704-.996 1.26-1.231 1.67-.234.41-.234.586 0 .528.586-.059.997-.205 1.231-.44l.351-.175c.469-.41.674-.352.616.175-.059.352.029.498.263.44.118-.059.147.03.088.264-.058.117-.351.585-.879 1.406-.117.175-.117.263 0 .263.235 0 .411-.029.528-.088.351-.058.527-.058.527 0 .059.528.029.88-.088 1.055-.527 1.055-.967 1.817-1.318 2.285-2.461 2.93-3.516 4.22-3.164 3.868a1.393 1.393 0 0 0-.264.351c-.234.293-.674.996-1.318 2.11l-.088.175.176-.088 1.054-1.054c.235-.235.381-.264.44-.088 0 .058.029.088.088.088.234.175.263.41.088.703-.176.234-.352.556-.528.967-.176.41-.322.732-.439.966-.176.176-.381.44-.616.791-.292.41-.498.674-.615.791-.879 1.172-1.494 2.022-1.845 2.55a42.079 42.079 0 0 0-1.67 2.724c.117-.293-.938 1.435-3.164 5.185-.879 1.524-1.26 2.14-1.143 1.846a10.008 10.008 0 0 1-1.055 1.67 525.392 525.392 0 0 1-3.076 4.746c-.351.586-.615.879-.791.879-.117 0-.293.176-.527.527-1.699 2.168-2.871 3.838-3.516 5.01-.234.41-.732 1.201-1.494 2.373a9.511 9.511 0 0 0-.615.967c-.293.469-.498.82-.615 1.055-1.465 2.285-2.11 3.34-1.934 3.164.059-.117-.527.82-1.758 2.812zM38.58 182.2c-2.093 0-3.733-.62-4.92-1.86-1.173-1.253-1.76-2.933-1.76-5.04s.687-3.78 2.06-5.02c1.387-1.253 3.287-1.88 5.7-1.88 2.267 0 4.04.473 5.32 1.42 1.28.933 1.92 2.233 1.92 3.9v.14h-4.2v-.14c0-.627-.233-1.067-.7-1.32-.453-.267-1.267-.4-2.44-.4-1.453 0-2.427.22-2.92.66-.493.44-.74 1.32-.74 2.64s.233 2.2.7 2.64c.467.44 1.387.66 2.76.66 1.44 0 2.4-.067 2.88-.2.493-.147.787-.467.88-.96H39v-2.76h7.92V182h-3.5v-2.86h-.2c-.467 2.04-2.013 3.06-4.64 3.06zm42.078-.2h-4.22l5.78-13.4h5.38l5.8 13.4h-4.32l-1.02-2.48h-6.36l-1.04 2.48zm3.24-7.74-.78 1.88h3.56l-.78-1.88-.88-2.26h-.26l-.86 2.26zM126.76 182H123v-13.4h5.1l2.46 5.56 1.32 3.46h.26l1.26-3.46 2.34-5.56h5.1V182h-3.76v-5.54l.14-2.24h-.26l-.76 2.24-2 4.74h-4.56l-2-4.74-.76-2.24h-.26l.14 2.24V182zm56.383 0h-11.9v-13.4h11.9v3.38h-8.14v1.6h7.84v3.36h-7.84v1.68h8.14V182zm68.762.2c-4.4 0-6.6-1.62-6.6-4.86v-.12h3.76v.42c0 .467.166.773.5.92.333.147 1.113.22 2.34.22 1.093 0 1.786-.047 2.08-.14.293-.107.44-.32.44-.64a.6.6 0 0 0-.28-.54c-.187-.12-.547-.213-1.08-.28l-4.2-.56c-2.507-.347-3.76-1.627-3.76-3.84 0-1.213.52-2.247 1.56-3.1 1.053-.853 2.7-1.28 4.94-1.28 2.08 0 3.646.427 4.7 1.28 1.066.853 1.6 2.047 1.6 3.58v.12h-3.76v-.3c0-.507-.187-.847-.56-1.02-.374-.173-1.167-.26-2.38-.26-.92 0-1.54.067-1.86.2-.32.12-.48.333-.48.64 0 .213.066.373.2.48.146.107.4.187.76.24l4.2.62c2.773.4 4.16 1.693 4.16 3.88 0 1.253-.52 2.293-1.56 3.12-1.027.813-2.6 1.22-4.72 1.22zm44.572-.2h-3.76v-10.02h-4.74v-3.38h13.22v3.38h-4.72V182zm46.708-1.32c-1.134 1.013-2.84 1.52-5.12 1.52-2.28 0-3.994-.507-5.14-1.52-1.134-1.027-1.7-2.46-1.7-4.3v-7.78h3.76v7.48c0 .973.2 1.633.6 1.98.413.333 1.24.5 2.48.5s2.06-.167 2.46-.5c.413-.347.62-1.007.62-1.98v-7.48h3.76v7.78c0 1.84-.574 3.273-1.72 4.3zm39.046 1.32h-6.78v-13.4h6.78c2.227 0 3.987.593 5.28 1.78 1.294 1.173 1.94 2.813 1.94 4.92 0 2.107-.646 3.753-1.94 4.94-1.293 1.173-3.053 1.76-5.28 1.76zm0-10.02h-3.02v6.64h3.02c.667 0 1.174-.027 1.52-.08.36-.067.68-.213.96-.44.28-.227.467-.56.56-1 .107-.44.16-1.04.16-1.8s-.053-1.36-.16-1.8c-.093-.44-.28-.773-.56-1-.28-.227-.6-.367-.96-.42-.346-.067-.853-.1-1.52-.1zM423.406 182h-3.76v-13.4h3.76V182zm37.621.2c-2.307 0-4.12-.62-5.44-1.86-1.32-1.253-1.98-2.933-1.98-5.04s.66-3.78 1.98-5.02c1.32-1.253 3.133-1.88 5.44-1.88 2.36 0 4.2.62 5.52 1.86 1.32 1.24 1.98 2.92 1.98 5.04s-.66 3.8-1.98 5.04c-1.32 1.24-3.16 1.86-5.52 1.86zm0-3.6c1.373 0 2.3-.22 2.78-.66.48-.44.72-1.32.72-2.64s-.24-2.2-.72-2.64c-.48-.44-1.407-.66-2.78-.66-1.36 0-2.273.22-2.74.66-.453.44-.68 1.32-.68 2.64s.227 2.2.68 2.64c.467.44 1.38.66 2.74.66z"/></svg>