<svg xmlns="http://www.w3.org/2000/svg" width="485" height="386" fill="none"><g clip-path="url(#a)"><path fill="#948F8F" d="M279.208 11.945a86.474 86.474 0 0 0-2.878-.038h-2.583v.438c7.83 0 20.324 3.394 30.568 10.98 8.829 6.535 19.35 18.67 19.35 39.42 0 15.694-6.297 27.145-18.709 34.015-6.92 3.838-13.914 5.1-17.069 5.493-.56.223-1.131.413-1.703.584l.019.412c.389-.019 38.279-2.296 38.279-40.497 0-34.364-28.036-48.288-45.274-50.788v-.019z"/><path fill="#F5F6FF" d="M346 75.407v.527c0 10.67-1.911 20.033-5.719 28.077-3.821 8.043-9.056 14.787-15.724 20.204-6.68 5.418-14.467 9.49-23.397 12.199-7.812 2.379-16.12 3.705-24.925 4.003h-26.156v-35.88h23.655c4.619 0 8.78-.564 12.456-1.706l.019.412c.39-.019 38.279-2.296 38.279-40.498 0-34.363-28.035-48.288-45.274-50.787 9.766.247 18.552 1.764 26.37 4.548 8.579 3.058 15.856 7.39 21.839 12.986 5.976 5.601 10.57 12.294 13.776 20.071 3.198 7.784 4.807 16.398 4.807 25.844H346z"/><path fill="#F5F6FF" d="M323.665 62.739c0 15.694-6.297 27.144-18.709 34.015-6.92 3.837-13.914 5.1-17.069 5.493 3.563-1.319 6.643-3.229 9.238-5.716 5.543-5.335 8.321-11.938 8.321-19.81v-.527c0-9.097-2.91-16.005-8.71-20.731-5.807-4.726-13.738-7.086-23.787-7.086h-30.933v-36.47h31.731v.438c7.83 0 20.324 3.394 30.568 10.98 8.829 6.535 19.35 18.67 19.35 39.42v-.006z"/><path fill="#F5F6FF" d="M276.952 57.917H163.089c-5.104 0-9.716 2.037-13.053 5.342-3.338 3.299-5.405 7.86-5.405 12.903 0 10.073 8.264 18.238 18.458 18.238h36.915v137.613c22.103 0 40.032-18.086 40.032-40.409V94.4h36.916a18.538 18.538 0 0 0 13.053-5.348c3.337-3.299 5.404-7.86 5.404-12.903 0-10.074-8.264-18.238-18.457-18.238v.006z"/><path fill="#F5F6FF" d="m192.249 28.959 49.686 28.958V0l-49.686 28.959zm-29.544 23.928c13.092 0 23.706-10.713 23.706-23.928 0-13.216-10.614-23.929-23.706-23.929C149.613 5.03 139 15.743 139 28.958c0 13.216 10.613 23.929 23.705 23.929z"/></g><path fill="#fff" d="M5.875 256.591v-9.136h39.34v9.136H31.103V294h-11.09v-37.409H5.874zM50.71 294v-46.545h19.227c3.485 0 6.493.628 9.023 1.886 2.546 1.242 4.508 3.03 5.887 5.364 1.378 2.318 2.068 5.068 2.068 8.25 0 3.227-.705 5.969-2.114 8.227-1.409 2.242-3.409 3.954-6 5.136-2.59 1.167-5.659 1.75-9.204 1.75h-12.16v-8.863h10.069c1.697 0 3.113-.22 4.25-.66 1.151-.454 2.022-1.136 2.613-2.045.591-.924.887-2.106.887-3.545 0-1.44-.296-2.629-.887-3.569-.59-.954-1.462-1.666-2.613-2.136-1.152-.485-2.569-.727-4.25-.727H61.96V294H50.71zm26.205-21.273L88.505 294H76.234L64.87 272.727h12.046zM103.153 294h-12.09l15.704-46.545h14.977L137.449 294h-12.091l-10.932-34.818h-.364L103.153 294zm-1.613-18.318h25.272v8.545H101.54v-8.545zm80.534-28.227V294h-9.546l-18.522-26.864h-.296V294h-11.25v-46.545h9.682l18.318 26.818h.387v-26.818h11.227zm32.233 13.954c-.152-1.667-.826-2.962-2.023-3.886-1.182-.94-2.871-1.409-5.068-1.409-1.455 0-2.667.189-3.636.568-.97.379-1.697.901-2.182 1.568-.485.652-.735 1.402-.75 2.25-.031.697.106 1.311.409 1.841.318.53.773 1 1.363 1.409.607.394 1.334.742 2.182 1.045.849.303 1.803.569 2.864.796l4 .909c2.303.5 4.333 1.167 6.091 2 1.773.833 3.257 1.826 4.454 2.977a11.524 11.524 0 0 1 2.75 3.978c.622 1.5.94 3.181.955 5.045-.015 2.939-.758 5.462-2.227 7.568-1.47 2.106-3.584 3.72-6.341 4.841-2.743 1.121-6.053 1.682-9.932 1.682-3.894 0-7.288-.583-10.182-1.75s-5.144-2.939-6.75-5.318c-1.606-2.379-2.432-5.387-2.477-9.023h10.773c.09 1.5.492 2.75 1.204 3.75s1.689 1.758 2.932 2.273c1.257.515 2.712.772 4.364.772 1.515 0 2.803-.204 3.863-.613 1.076-.409 1.902-.977 2.477-1.705.576-.727.872-1.56.887-2.5-.015-.879-.288-1.629-.818-2.25-.531-.636-1.349-1.182-2.455-1.636-1.091-.47-2.485-.902-4.182-1.296l-4.863-1.136c-4.031-.924-7.205-2.417-9.523-4.477-2.318-2.076-3.47-4.879-3.455-8.409-.015-2.879.758-5.402 2.319-7.568 1.56-2.167 3.719-3.857 6.477-5.069 2.757-1.212 5.901-1.818 9.432-1.818 3.606 0 6.734.614 9.386 1.841 2.667 1.212 4.735 2.917 6.205 5.114 1.469 2.197 2.219 4.742 2.25 7.636h-10.773zM240.028 294h-12.09l15.704-46.545h14.977L274.324 294h-12.091l-10.932-34.818h-.363L240.028 294zm-1.613-18.318h25.273v8.545h-25.273v-8.545zm80.983-11.364h-11.364c-.151-1.166-.462-2.22-.932-3.159a7.688 7.688 0 0 0-1.863-2.409c-.773-.667-1.69-1.174-2.75-1.523-1.046-.363-2.205-.545-3.478-.545-2.257 0-4.204.553-5.841 1.659-1.621 1.106-2.871 2.704-3.75 4.795-.863 2.091-1.295 4.622-1.295 7.591 0 3.091.439 5.682 1.318 7.773.894 2.076 2.144 3.644 3.75 4.705 1.621 1.045 3.538 1.568 5.75 1.568 1.243 0 2.371-.159 3.387-.478 1.03-.318 1.931-.78 2.704-1.386a7.656 7.656 0 0 0 1.932-2.25c.515-.894.871-1.901 1.068-3.023l11.364.069c-.197 2.06-.796 4.09-1.796 6.09-.985 2-2.341 3.826-4.068 5.478-1.727 1.636-3.833 2.939-6.318 3.909-2.47.97-5.303 1.454-8.5 1.454-4.212 0-7.985-.924-11.318-2.772-3.318-1.864-5.94-4.576-7.864-8.137-1.924-3.56-2.886-7.894-2.886-13 0-5.121.977-9.462 2.932-13.022 1.954-3.561 4.598-6.266 7.931-8.114 3.334-1.849 7.069-2.773 11.205-2.773 2.818 0 5.424.394 7.818 1.182 2.394.773 4.5 1.909 6.318 3.409 1.818 1.485 3.296 3.311 4.432 5.477 1.136 2.167 1.841 4.644 2.114 7.432zm4.914-7.727v-9.136h39.341v9.136H349.54V294h-11.091v-37.409h-14.137zm56.086-9.136V294h-11.25v-46.545h11.25zm50.994 23.272c0 5.121-.985 9.462-2.954 13.023-1.97 3.561-4.637 6.265-8 8.114-3.349 1.848-7.107 2.772-11.273 2.772-4.182 0-7.947-.931-11.296-2.795-3.348-1.864-6.007-4.568-7.977-8.114-1.954-3.56-2.932-7.894-2.932-13 0-5.121.978-9.462 2.932-13.022 1.97-3.561 4.629-6.266 7.977-8.114 3.349-1.849 7.114-2.773 11.296-2.773 4.166 0 7.924.924 11.273 2.773 3.363 1.848 6.03 4.553 8 8.114 1.969 3.56 2.954 7.901 2.954 13.022zm-11.5 0c0-3.03-.432-5.591-1.295-7.682-.849-2.09-2.076-3.674-3.682-4.75-1.591-1.075-3.508-1.613-5.75-1.613-2.227 0-4.144.538-5.75 1.613-1.606 1.076-2.841 2.66-3.705 4.75-.848 2.091-1.272 4.652-1.272 7.682 0 3.031.424 5.591 1.272 7.682.864 2.091 2.099 3.674 3.705 4.75 1.606 1.076 3.523 1.614 5.75 1.614 2.242 0 4.159-.538 5.75-1.614 1.606-1.076 2.833-2.659 3.682-4.75.863-2.091 1.295-4.651 1.295-7.682zm57.682-23.272V294h-9.546l-18.522-26.864h-.296V294h-11.25v-46.545h9.682l18.318 26.818h.387v-26.818h11.227zM145.741 371v-46.545h19.228c3.485 0 6.492.681 9.022 2.045 2.546 1.348 4.508 3.235 5.887 5.659 1.379 2.409 2.068 5.212 2.068 8.409 0 3.212-.705 6.023-2.114 8.432-1.394 2.394-3.386 4.25-5.977 5.568-2.591 1.318-5.667 1.977-9.227 1.977h-11.864v-8.863h9.773c1.697 0 3.114-.296 4.25-.887 1.151-.59 2.023-1.416 2.614-2.477.59-1.076.886-2.326.886-3.75 0-1.439-.296-2.682-.886-3.727-.591-1.061-1.463-1.879-2.614-2.455-1.152-.575-2.568-.863-4.25-.863h-5.546V371h-11.25zm85.682-23.273c0 5.121-.985 9.462-2.954 13.023-1.97 3.561-4.637 6.265-8 8.114-3.349 1.848-7.106 2.772-11.273 2.772-4.182 0-7.947-.931-11.295-2.795-3.349-1.864-6.008-4.568-7.978-8.114-1.954-3.56-2.932-7.894-2.932-13 0-5.121.978-9.462 2.932-13.022 1.97-3.561 4.629-6.266 7.978-8.114 3.348-1.849 7.113-2.773 11.295-2.773 4.167 0 7.924.924 11.273 2.773 3.363 1.848 6.03 4.553 8 8.114 1.969 3.56 2.954 7.901 2.954 13.022zm-11.5 0c0-3.03-.432-5.591-1.295-7.682-.849-2.09-2.076-3.674-3.682-4.75-1.591-1.075-3.508-1.613-5.75-1.613-2.227 0-4.144.538-5.75 1.613-1.606 1.076-2.841 2.66-3.705 4.75-.848 2.091-1.272 4.652-1.272 7.682 0 3.031.424 5.591 1.272 7.682.864 2.091 2.099 3.674 3.705 4.75 1.606 1.076 3.523 1.614 5.75 1.614 2.242 0 4.159-.538 5.75-1.614 1.606-1.076 2.833-2.659 3.682-4.75.863-2.091 1.295-4.651 1.295-7.682zm29.318-23.272V371h-11.25v-46.545h11.25zm46.677 0V371h-9.546l-18.523-26.864h-.295V371h-11.25v-46.545h9.682l18.318 26.818h.386v-26.818h11.228zm5.551 9.136v-9.136h39.341v9.136h-14.114V371h-11.091v-37.409h-14.136z"/><defs><clipPath id="a"><path fill="#fff" d="M139 0h207v232H139z"/></clipPath></defs></svg>