<svg xmlns="http://www.w3.org/2000/svg" width="80" height="36" fill="none"><g fill="#fff" fill-rule="evenodd" clip-path="url(#a)" clip-rule="evenodd"><path d="M29.5 10.5c0 10.486 0 10.5.041 10.5.035 0 .041-.014.041-.087 0-.155.035-.234.144-.328.085-.073.102-.1.103-.16.002-.156.033-.246.11-.316.071-.066.074-.073.074-.213 0-.144 0-.145.077-.202.13-.097.169-.152.17-.242 0-.141.034-.243.098-.297.053-.046.062-.069.07-.187.011-.15.042-.209.148-.285.08-.057.113-.142.113-.284 0-.104.025-.157.105-.233.05-.046.06-.072.06-.156 0-.15.033-.223.123-.274.092-.051.11-.093.139-.311.017-.135.03-.172.081-.226.049-.051.064-.09.075-.187.017-.152.052-.208.157-.25.044-.017.082-.038.083-.045l.005-.159c.003-.138.007-.15.08-.23a.347.347 0 0 0 .08-.132.524.524 0 0 1 .006-.067.911.911 0 0 0 .008-.1c.003-.078.04-.128.19-.25.044-.036.055-.067.066-.18.013-.14.053-.245.107-.275.021-.011.037-.07.05-.18.017-.163.017-.163.124-.26.105-.094.108-.099.134-.264.023-.14.038-.179.09-.232.052-.054.065-.087.076-.197.012-.128.058-.246.095-.246.059 0 .158-.153.158-.244 0-.144.035-.24.104-.29.053-.038.06-.055.062-.149.001-.16.037-.243.125-.29.083-.044.098-.078.099-.211 0-.107.063-.294.119-.354a.307.307 0 0 0 .054-.14c.023-.158.05-.216.123-.266a.271.271 0 0 0 .114-.234c0-.066.068-.242.127-.327a.214.214 0 0 0 .037-.092c0-.085.048-.2.113-.272a.51.51 0 0 0 .134-.294.835.835 0 0 1 .101-.227.548.548 0 0 0 .083-.183c0-.1.062-.23.145-.303.07-.06.085-.089.1-.188.022-.135.058-.212.132-.282.045-.042.053-.067.054-.164 0-.116.04-.224.093-.254a.428.428 0 0 0 .111-.214c0-.044.131-.323.16-.34a.436.436 0 0 0 .046-.152c.03-.167.047-.2.136-.288a.408.408 0 0 0 .1-.184c.06-.214.073-.248.124-.323a.29.29 0 0 0 .05-.108c0-.087.068-.245.132-.312.039-.04.076-.1.083-.134.024-.115.12-.368.166-.44a.527.527 0 0 0 .06-.18c.013-.102.117-.251.174-.251.056 0 .086-.274.032-.294-.017-.007-1.388-.013-3.048-.015-3.062-.003-3.106-.004-3.19-.084-.089-.082-.053-.433.065-.649a.587.587 0 0 0 .07-.178c0-.124.048-.265.108-.32.095-.086.139-.165.139-.249 0-.105.055-.24.126-.31.032-.03.058-.07.058-.087 0-.017.014-.056.03-.088.064-.124-.287-.115 4.862-.12 4.853-.003 5.366.004 5.633.075.082.022.228.05.324.06.096.012.23.044.297.072.069.028.21.06.318.074.136.016.22.038.278.072a.58.58 0 0 0 .164.062.87.87 0 0 1 .204.081c.068.037.15.074.185.082a.884.884 0 0 1 .305.183.543.543 0 0 0 .135.09c.04.016.106.06.146.097a.67.67 0 0 0 .094.074c.01.005.038.045.06.09a.384.384 0 0 0 .113.127c.14.09.167.12.167.182 0 .04.02.084.066.132.06.066.085.128.124.318a.809.809 0 0 0 .103.195c.13.191.154.403.134 1.158-.016.619-.021.645-.16.773-.071.067-.083.093-.107.226a1.25 1.25 0 0 1-.305.598l-.179.185a.506.506 0 0 0-.09.136c-.04.101-.056.118-.141.145a.468.468 0 0 0-.151.098l-.113.11-.127.129a.489.489 0 0 1-.107.092.31.31 0 0 0-.089.072c-.04.04-.084.072-.1.072-.015 0-.049.022-.075.05a.244.244 0 0 1-.104.063c-.056.012-.163.1-.163.134 0 .01-.02.023-.045.03a.319.319 0 0 0-.095.062.502.502 0 0 1-.168.08.416.416 0 0 0-.153.072.306.306 0 0 1-.11.065.732.732 0 0 0-.157.08.5.5 0 0 1-.149.071.175.175 0 0 0-.095.054.351.351 0 0 1-.13.08 1.057 1.057 0 0 0-.18.09.31.31 0 0 1-.11.053.472.472 0 0 0-.213.07.27.27 0 0 1-.15.074.396.396 0 0 0-.13.06.58.58 0 0 1-.197.074.597.597 0 0 0-.195.07.805.805 0 0 1-.143.073.81.81 0 0 0-.133.062.809.809 0 0 1-.216.071.513.513 0 0 0-.2.074.497.497 0 0 1-.195.073.776.776 0 0 0-.21.07.84.84 0 0 1-.225.071.466.466 0 0 0-.199.07c-.038.033-.095.051-.189.061a.448.448 0 0 0-.212.067.495.495 0 0 1-.241.071c-.09.01-.233.045-.318.077a1.649 1.649 0 0 1-.246.074.81.81 0 0 0-.203.074.513.513 0 0 1-.153.059c-.048 0-.369.07-.505.112a1.337 1.337 0 0 1-.2.039.56.56 0 0 0-.201.066.489.489 0 0 1-.252.064.938.938 0 0 0-.279.06 1.86 1.86 0 0 1-.306.08 1.714 1.714 0 0 0-.202.042 1.069 1.069 0 0 1-.13.04c-.233.06-.3.149-.192.247.065.059.098.136.113.261.013.112.014.114.11.154.093.038.1.046.124.15.015.06.057.15.094.2a.46.46 0 0 1 .08.163l.02.117c.006.023.047.063.092.089.092.052.136.12.156.246a.288.288 0 0 0 .083.155c.049.05.07.09.07.135 0 .09.029.14.146.248.09.08.105.107.114.188.008.072.024.104.061.129.061.04.106.139.111.247.007.114.026.141.12.169.098.03.115.057.13.216.01.104.022.129.085.187.064.058.087.114.075.181-.009.047.03.102.117.17.118.089.146.136.147.25 0 .073.009.09.053.11.066.03.112.116.112.209 0 .073.047.134.182.235.053.04.064.062.064.13 0 .063.013.093.059.136.079.074.097.116.114.257.015.117.017.12.105.16.106.047.105.046.144.197.02.075.054.142.094.183.047.049.065.09.073.164.013.116.028.14.122.184.094.045.144.155.15.331 0 .014.023.036.05.049.062.028.073.053.102.232l.023.143.09.033c.112.042.145.086.145.194 0 .065.013.096.054.134a.36.36 0 0 1 .11.273c0 .089.002.09.104.134.112.049.133.08.152.23.01.072.03.114.084.169.057.059.07.089.07.156 0 .073.01.09.084.143.11.08.163.15.177.237l.012.072H50.5v-1.88l-.201-.013c-.32-.02-.773.003-.947.048-.162.04-.56.07-1.21.092a5.74 5.74 0 0 0-.892.08c-.142.023-.434.04-.953.051-.696.016-.758.02-.873.063a.922.922 0 0 1-.33.048c-.259.005-.297-.014-.377-.18a1.457 1.457 0 0 0-.11-.192.425.425 0 0 1-.064-.165c-.016-.115-.023-.127-.101-.167-.085-.044-.132-.117-.155-.242-.015-.08-.036-.122-.08-.158-.044-.038-.065-.08-.082-.17-.028-.14-.064-.197-.153-.243-.084-.043-.095-.062-.096-.157 0-.06-.015-.092-.07-.148-.07-.069-.081-.103-.102-.286-.005-.045-.017-.084-.026-.087-.156-.052-.233-.158-.233-.32 0-.082-.007-.1-.047-.115-.07-.027-.101-.075-.12-.19-.02-.13-.06-.193-.15-.23-.072-.03-.077-.041-.103-.202-.008-.049-.03-.089-.06-.108-.05-.033-.094-.15-.094-.252 0-.097-.018-.124-.113-.166-.101-.045-.126-.082-.154-.232a.317.317 0 0 0-.082-.17.286.286 0 0 1-.08-.172c-.012-.078-.03-.116-.065-.14-.097-.067-.183-.166-.184-.214-.005-.115-.016-.145-.078-.198-.054-.045-.07-.079-.089-.189-.025-.141-.056-.195-.127-.217-.076-.023-.113-.072-.127-.17a.407.407 0 0 0-.07-.166c-.084-.11-.086-.117-.104-.293-.026-.262-.005-.286.281-.32a.483.483 0 0 0 .206-.061c.04-.03.112-.05.24-.064.143-.015.2-.032.26-.074a.495.495 0 0 1 .239-.073c.104-.013.174-.033.2-.057.05-.044.09-.058.248-.084a.372.372 0 0 0 .161-.06.477.477 0 0 1 .163-.071.552.552 0 0 0 .177-.08c.044-.037.095-.054.199-.065.117-.012.149-.024.194-.073a.254.254 0 0 1 .133-.072.57.57 0 0 0 .17-.073.373.373 0 0 1 .127-.06c.02 0 .062-.021.094-.048.079-.066.139-.095.193-.095a.17.17 0 0 0 .095-.046c.047-.044.139-.096.366-.207.057-.028.138-.074.18-.102a.476.476 0 0 1 .155-.065.341.341 0 0 0 .153-.079c.136-.123.214-.178.282-.202a.388.388 0 0 0 .124-.082c.031-.031.07-.058.085-.058s.052-.027.082-.06c.03-.034.09-.07.136-.083.062-.017.09-.038.114-.09.031-.066.243-.25.354-.308a.204.204 0 0 0 .081-.08.135.135 0 0 1 .071-.066.28.28 0 0 0 .099-.073.28.28 0 0 1 .123-.075.144.144 0 0 0 .106-.086.71.71 0 0 1 .094-.133.957.957 0 0 0 .092-.117c.023-.037.064-.061.128-.078.077-.019.1-.035.116-.083a.21.21 0 0 1 .07-.092.22.22 0 0 0 .07-.115c.024-.085.077-.124.21-.152.037-.007.057-.025.057-.05 0-.077.047-.168.102-.196a.202.202 0 0 0 .08-.088.451.451 0 0 1 .126-.134c.073-.055.106-.097.122-.153a.57.57 0 0 1 .09-.163.807.807 0 0 0 .094-.144.423.423 0 0 1 .114-.125.281.281 0 0 0 .123-.18c.025-.085.046-.117.093-.142.052-.027.061-.043.061-.111 0-.113.014-.139.105-.19.106-.06.133-.106.15-.256.013-.102.029-.142.085-.208.06-.07.07-.098.07-.184 0-.13.05-.242.152-.334l.08-.073.029-.285c.027-.263.034-.291.094-.378l.066-.093.005-.975.006-.974-.064-.097c-.069-.104-.125-.352-.118-.524.002-.054-.007-.097-.02-.101a.358.358 0 0 1-.23-.328c0-.075-.008-.09-.06-.117-.063-.033-.073-.052-.095-.186-.018-.11-.056-.165-.143-.206a.265.265 0 0 1-.106-.099.64.64 0 0 0-.086-.12.402.402 0 0 1-.075-.123c-.017-.051-.041-.073-.102-.094-.106-.035-.15-.077-.165-.158a.193.193 0 0 0-.073-.111.262.262 0 0 1-.079-.092c-.013-.035-.04-.05-.103-.06a.222.222 0 0 1-.14-.075c-.03-.034-.065-.061-.079-.061-.014 0-.046-.028-.071-.062a.492.492 0 0 0-.15-.113 1.056 1.056 0 0 1-.29-.187.396.396 0 0 0-.134-.077.404.404 0 0 1-.131-.075c-.02-.022-.048-.04-.063-.04s-.06-.032-.1-.072c-.047-.047-.09-.072-.128-.072a.418.418 0 0 1-.257-.089.29.29 0 0 0-.148-.061.336.336 0 0 1-.157-.064.336.336 0 0 0-.136-.063.538.538 0 0 1-.233-.086.752.752 0 0 0-.22-.057.637.637 0 0 1-.243-.07c-.06-.045-.226-.084-.355-.084a.438.438 0 0 1-.176-.055c-.093-.05-.126-.056-.43-.07-.374-.015-.453-.04-.474-.142L44.527 0H29.5v10.5z"/><path d="M44.614.04c0 .083.08.105.444.126.27.015.36.028.426.06.046.022.169.053.272.07a.817.817 0 0 1 .279.082c.06.035.144.06.248.073.101.013.19.038.244.07a.615.615 0 0 0 .169.064.617.617 0 0 1 .164.06c.045.026.13.062.188.081.058.02.117.048.13.064.026.03.11.06.232.081a.22.22 0 0 1 .123.066.47.47 0 0 0 .127.092c.155.076.263.139.305.179.024.022.108.073.187.114.079.04.176.106.215.145.11.109.227.195.322.236a.27.27 0 0 1 .107.077.288.288 0 0 0 .092.082c.046.027.075.063.083.103.016.07.059.115.139.145a.28.28 0 0 1 .105.1.574.574 0 0 0 .084.106c.02.016.053.065.075.107.026.052.07.094.127.122.107.055.11.06.128.201.012.098.025.125.094.189.06.056.08.089.08.14 0 .09.041.161.152.26l.094.084v.162c0 .149.007.177.092.357l.092.194v1.972l-.053.101-.084.158a1.16 1.16 0 0 0-.047.317l-.017.26-.074.062c-.114.096-.155.172-.155.285 0 .114-.02.16-.105.236-.054.048-.063.072-.074.205-.013.163-.016.169-.14.236-.073.041-.082.055-.093.144-.01.092-.07.175-.127.177-.008 0-.03.056-.05.125-.028.103-.05.138-.124.199a.57.57 0 0 0-.132.162.42.42 0 0 1-.09.127c-.05.04-.08.096-.1.192a.143.143 0 0 1-.068.086c-.092.049-.29.269-.32.353-.023.068-.04.083-.126.11-.099.033-.117.055-.142.168a.14.14 0 0 1-.074.089.218.218 0 0 0-.086.085.229.229 0 0 1-.113.09.26.26 0 0 0-.124.103c-.048.087-.263.306-.301.306-.017 0-.066.03-.108.068a.543.543 0 0 1-.113.081.246.246 0 0 0-.08.087.675.675 0 0 1-.169.158 1.727 1.727 0 0 0-.22.182.667.667 0 0 1-.165.127.385.385 0 0 0-.1.06.516.516 0 0 1-.103.067.327.327 0 0 0-.098.077.35.35 0 0 1-.113.08 1.086 1.086 0 0 0-.29.194.298.298 0 0 1-.149.077c-.045.007-.094.027-.109.045a.566.566 0 0 1-.13.085 1.698 1.698 0 0 0-.155.088.604.604 0 0 1-.134.061.403.403 0 0 0-.124.064.38.38 0 0 1-.112.062c-.067.023-.225.11-.39.214a.657.657 0 0 1-.181.07.41.41 0 0 0-.177.08.29.29 0 0 1-.171.07.598.598 0 0 0-.195.065 1.043 1.043 0 0 1-.186.082.448.448 0 0 0-.136.063.557.557 0 0 1-.188.063.663.663 0 0 0-.207.072c-.048.035-.227.078-.334.08a.367.367 0 0 0-.102.054.646.646 0 0 1-.262.083c-.1.016-.22.048-.264.07a.629.629 0 0 1-.187.052c-.291.028-.321.05-.321.234 0 .143.039.252.102.286.048.026.078.091.1.214.011.069.028.09.106.135.095.055.103.072.133.27.008.053.036.1.093.153.07.067.08.09.08.166 0 .082.008.093.103.16.081.06.104.09.114.15.03.176.05.219.122.265.061.04.072.058.072.123 0 .091.058.194.138.243.09.056.108.09.108.197 0 .088.01.11.087.193.072.079.088.112.097.2.01.1.015.107.1.148.11.053.126.076.126.193.001.14.018.177.105.235.07.047.08.062.08.135 0 .114.048.196.141.244.083.042.104.084.105.207 0 .07.037.144.103.204a.248.248 0 0 1 .082.18c0 .065.034.104.136.156.066.033.072.046.1.234.01.066.035.11.094.168.065.065.08.094.08.157 0 .068.014.091.114.184.105.098.115.116.13.224.013.096.027.125.078.165.039.03.068.076.076.12.037.2.227.282.473.205.076-.024.253-.037.68-.05.649-.02 1.018-.048 1.24-.093a6.91 6.91 0 0 1 .695-.05 12.39 12.39 0 0 0 1.285-.101c.245-.03.508-.044.866-.047.49-.006.515-.008.515-.045 0-.059-1.438.002-2.087.089-.17.023-.486.047-.705.054-.348.01-.74.046-1.268.113-.085.011-.404.03-.708.04-.304.012-.6.027-.658.033-.13.014-.234-.057-.234-.16a.133.133 0 0 0-.054-.106c-.138-.114-.151-.133-.151-.22 0-.102-.026-.154-.116-.235a.247.247 0 0 1-.087-.16c-.015-.081-.036-.117-.11-.185-.083-.076-.095-.098-.108-.2-.016-.133-.019-.139-.107-.2-.044-.03-.067-.064-.067-.095 0-.086-.04-.156-.144-.257-.093-.09-.102-.107-.102-.192s-.01-.106-.104-.21c-.092-.1-.103-.123-.093-.18.014-.07-.03-.156-.079-.156-.073 0-.12-.076-.143-.227-.022-.146-.026-.154-.11-.21-.077-.052-.086-.067-.086-.14 0-.082-.048-.202-.08-.202-.062 0-.146-.123-.146-.213 0-.082-.011-.107-.092-.197-.09-.103-.107-.137-.117-.257-.005-.047-.024-.07-.083-.102-.084-.045-.11-.093-.13-.243-.007-.055-.024-.107-.037-.118l-.09-.071c-.056-.046-.065-.066-.062-.138.003-.076-.006-.092-.091-.168-.103-.09-.139-.16-.139-.27 0-.057-.017-.09-.081-.153a.426.426 0 0 1-.114-.193c-.027-.092-.048-.122-.118-.169-.093-.063-.125-.146-.104-.268.017-.094.076-.125.281-.148.097-.011.224-.04.283-.062.058-.023.17-.055.248-.072a.93.93 0 0 0 .228-.08.714.714 0 0 1 .225-.07.707.707 0 0 0 .215-.066.83.83 0 0 1 .215-.072.648.648 0 0 0 .194-.066.685.685 0 0 1 .163-.072.685.685 0 0 0 .164-.072.545.545 0 0 1 .168-.063.451.451 0 0 0 .167-.07.471.471 0 0 1 .178-.073c.082-.016.138-.04.17-.074a.34.34 0 0 1 .12-.074.57.57 0 0 0 .136-.07.443.443 0 0 1 .113-.061.994.994 0 0 0 .154-.072.98.98 0 0 1 .154-.071.901.901 0 0 0 .164-.089l.184-.12c.04-.025.1-.052.133-.06a.458.458 0 0 0 .149-.093.383.383 0 0 1 .109-.08.425.425 0 0 0 .112-.061.44.44 0 0 1 .11-.062c.01 0 .04-.027.063-.06a.222.222 0 0 1 .089-.075c.078-.024.324-.179.344-.216a.988.988 0 0 1 .192-.15.889.889 0 0 0 .231-.2.392.392 0 0 1 .106-.111.613.613 0 0 0 .112-.085.375.375 0 0 1 .112-.076.18.18 0 0 0 .08-.066.438.438 0 0 1 .112-.1.387.387 0 0 0 .118-.128.252.252 0 0 1 .091-.101.317.317 0 0 0 .1-.09.386.386 0 0 1 .134-.102c.08-.034.087-.044.087-.111 0-.062.01-.08.065-.109a.478.478 0 0 0 .108-.081l.135-.148c.05-.055.11-.125.13-.155a.4.4 0 0 1 .106-.094c.052-.031.068-.056.077-.122.013-.098.039-.132.13-.175a.147.147 0 0 0 .09-.11.347.347 0 0 1 .1-.147.303.303 0 0 0 .104-.177.252.252 0 0 1 .11-.173c.11-.086.116-.094.116-.184 0-.08.031-.123.123-.17.06-.031.083-.096.083-.237 0-.111.014-.137.105-.188.086-.048.12-.124.12-.268 0-.058.017-.095.07-.154.098-.11.115-.152.115-.288 0-.188.035-.333.103-.428.128-.179.127-.164.127-1.278.001-1.128-.005-1.186-.13-1.308-.057-.057-.098-.194-.094-.322.003-.115-.012-.152-.098-.241-.078-.08-.093-.108-.093-.177 0-.079-.09-.208-.144-.208-.03 0-.066-.083-.09-.204-.02-.099-.03-.117-.098-.152a.224.224 0 0 1-.1-.103c-.031-.078-.099-.156-.135-.156-.015 0-.05-.037-.08-.083a.325.325 0 0 0-.1-.105.177.177 0 0 1-.073-.076l-.04-.085c-.007-.017-.052-.048-.098-.07a.281.281 0 0 1-.111-.09.22.22 0 0 0-.096-.077 1.055 1.055 0 0 1-.298-.225.792.792 0 0 0-.28-.194.84.84 0 0 1-.154-.086 1.399 1.399 0 0 0-.307-.186.412.412 0 0 1-.124-.079.319.319 0 0 0-.133-.072.744.744 0 0 1-.176-.072.547.547 0 0 0-.131-.059.694.694 0 0 1-.145-.06 1.426 1.426 0 0 0-.235-.091.504.504 0 0 1-.15-.06.525.525 0 0 0-.268-.076.688.688 0 0 1-.206-.06 3.351 3.351 0 0 0-.966-.226c-.292-.02-.382-.041-.402-.093-.019-.05-.15-.042-.15.01zM30.608 3.936c-.035.01-.07.049-.109.124a1.02 1.02 0 0 1-.118.18c-.066.076-.073.098-.092.296-.01.116-.021.144-.074.195-.115.108-.145.168-.162.32a.39.39 0 0 1-.059.197c-.1.124-.108.148-.12.309-.011.174.014.276.075.307.018.01.983.018 2.145.02 2.877.005 4.054.02 4.086.051.02.018.02.043.005.096a.625.625 0 0 0-.02.143c0 .058-.02.092-.102.18-.07.075-.105.13-.114.184a7.38 7.38 0 0 1-.022.131.474.474 0 0 1-.083.147.416.416 0 0 0-.092.242c-.019.134-.03.159-.111.25-.088.097-.117.165-.143.328a.345.345 0 0 1-.074.148c-.049.056-.068.105-.091.238-.027.156-.035.173-.12.251-.091.085-.104.114-.121.275a.326.326 0 0 1-.068.161c-.09.113-.108.152-.121.282-.012.107-.024.133-.105.22a.425.425 0 0 0-.13.32c0 .047-.017.078-.063.114-.072.057-.12.173-.12.299-.001.077-.015.104-.104.204a.43.43 0 0 0-.114.188c-.027.165-.036.19-.101.268-.068.08-.077.106-.104.287-.017.113-.03.137-.13.253a.324.324 0 0 0-.092.194.512.512 0 0 1-.094.22.443.443 0 0 0-.094.268c-.014.144-.018.154-.099.225-.11.096-.134.142-.135.258 0 .078-.015.114-.082.203-.07.092-.114.214-.102.277.02.108-.004.174-.085.225-.096.06-.142.152-.142.282 0 .073-.011.1-.064.15a.372.372 0 0 0-.12.296c0 .097-.045.225-.078.225-.071 0-.131.1-.15.245-.017.136-.027.162-.093.229-.07.072-.098.17-.11.394 0 .01-.047.06-.104.113-.101.094-.103.098-.115.244-.012.138-.018.152-.08.2-.077.059-.111.152-.111.304 0 .103-.018.129-.167.252-.045.037-.055.066-.065.195-.01.127-.02.156-.06.182-.108.072-.119.095-.119.257 0 .163-.006.175-.133.264-.068.047-.113.148-.113.254 0 .06-.016.099-.07.162a.524.524 0 0 0-.114.352c0 .08-.01.099-.104.185-.089.082-.106.11-.114.188-.017.155-.028.183-.082.23a.3.3 0 0 0-.11.227c0 .194-.023.261-.108.314-.093.059-.139.151-.139.28 0 .075-.011.1-.072.159-.081.079-.112.167-.112.322 0 .116-.012.134-.144.218-.07.045-.072.047-.078.205-.005.158-.006.16-.078.202-.085.05-.11.105-.11.242 0 .133-.026.192-.116.271-.13.115-.185.344-.082.344.044 0 .05-.011.059-.104.008-.085.024-.118.086-.182.067-.069.079-.095.095-.223.028-.227.037-.247.123-.291.088-.045.093-.058.113-.25.013-.13.018-.142.084-.183.088-.054.11-.108.11-.27v-.127l.112-.105c.111-.103.113-.106.113-.22 0-.11.006-.124.087-.211.084-.092.087-.1.1-.268l.014-.174.104-.097c.1-.091.105-.102.105-.199 0-.106.024-.156.126-.265.049-.052.06-.088.077-.234.018-.166.022-.176.103-.25.097-.09.125-.15.125-.268 0-.071.014-.1.092-.183.077-.082.092-.112.092-.178 0-.192.024-.273.09-.313.12-.07.136-.098.136-.237 0-.126.002-.13.082-.195.09-.073.123-.154.123-.312 0-.093.007-.105.113-.207.108-.105.113-.113.113-.215 0-.124.023-.176.108-.249.055-.047.063-.068.078-.225l.017-.175.104-.106c.09-.09.103-.114.103-.186 0-.11.028-.18.11-.271.062-.068.07-.093.084-.238.014-.156.018-.164.102-.244.112-.105.134-.15.134-.265 0-.082.012-.106.084-.185.073-.079.087-.11.105-.23.011-.077.024-.16.03-.186.005-.029.034-.057.076-.075.102-.042.136-.104.136-.244 0-.107.007-.127.065-.184a.383.383 0 0 0 .12-.27c0-.101.031-.171.122-.27a.449.449 0 0 0 .124-.3c0-.035.026-.086.07-.133a.473.473 0 0 0 .114-.328c0-.073.012-.097.074-.154.092-.084.109-.115.145-.27a.583.583 0 0 1 .086-.197c.087-.11.09-.118.106-.28.014-.147.017-.152.117-.248.094-.089.105-.108.117-.214a.412.412 0 0 1 .064-.185l.083-.115a.446.446 0 0 0 .045-.2c.01-.146.012-.153.077-.192.093-.054.133-.123.15-.257a.36.36 0 0 1 .081-.195c.079-.097.106-.165.106-.26s.045-.197.11-.248c.063-.049.105-.14.126-.272a.412.412 0 0 1 .07-.164c.085-.108.104-.153.104-.246 0-.105.042-.207.107-.258.078-.061.114-.131.141-.273a.406.406 0 0 1 .083-.197.363.363 0 0 0 .1-.277c0-.077.012-.114.053-.163.063-.075.055-.11-.036-.158-.074-.04-.607-.049-4.62-.077l-1.655-.012c-.096-.002-.044-.289.074-.407.074-.074.094-.11.104-.186.025-.202.034-.228.103-.31.079-.095.084-.111.1-.316.01-.135.016-.148.103-.236a.692.692 0 0 0 .123-.17c.018-.042.048-.084.068-.094.053-.026 8.398-.03 9.305-.004.749.021 1.081.05 1.282.114.051.016.194.043.318.058.142.018.267.047.338.08.062.027.143.055.18.062.07.014.263.098.458.199.064.033.16.07.214.082.084.019.12.045.254.187.085.09.189.182.23.203a.229.229 0 0 1 .1.102.21.21 0 0 0 .081.092c.038.02.063.057.08.117a.44.44 0 0 0 .135.19l.108.103.011.175a.8.8 0 0 0 .09.348l.08.175.006.569c.005.463.001.58-.023.625-.127.245-.138.275-.156.437-.016.143-.027.179-.067.21-.13.103-.16.142-.16.211 0 .07-.026.106-.132.179-.042.029-.053.054-.053.115 0 .089-.018.109-.128.144-.057.019-.091.049-.13.114a.589.589 0 0 1-.084.116.554.554 0 0 0-.08.101c-.03.049-.068.079-.106.087a.443.443 0 0 0-.148.085.463.463 0 0 1-.103.073c-.01 0-.035.03-.058.07a.451.451 0 0 1-.181.143 1.31 1.31 0 0 0-.233.156c-.05.045-.154.114-.23.154a.859.859 0 0 0-.15.091 1.51 1.51 0 0 1-.218.124 1.15 1.15 0 0 0-.246.153.208.208 0 0 1-.105.063.592.592 0 0 0-.157.073.382.382 0 0 1-.124.06.85.85 0 0 0-.177.069c-.08.038-.167.076-.194.085a.393.393 0 0 0-.107.063.48.48 0 0 1-.18.072.478.478 0 0 0-.197.082.237.237 0 0 1-.144.06.48.48 0 0 0-.252.09.392.392 0 0 1-.123.053c-.05.013-.134.045-.185.07a.787.787 0 0 1-.174.062.554.554 0 0 0-.17.072.575.575 0 0 1-.237.08.886.886 0 0 0-.24.072.687.687 0 0 1-.194.064 1.063 1.063 0 0 0-.217.063c-.064.026-.16.06-.216.073a1.14 1.14 0 0 0-.193.071.897.897 0 0 1-.27.066.634.634 0 0 0-.272.074.637.637 0 0 1-.233.072.844.844 0 0 0-.225.06.958.958 0 0 1-.234.067.642.642 0 0 0-.283.09 1.285 1.285 0 0 1-.267.058 1.53 1.53 0 0 0-.312.074 1.206 1.206 0 0 1-.276.065 2.62 2.62 0 0 0-.372.082 1.49 1.49 0 0 1-.244.06c-.158 0-.457.105-.457.161 0 .083.143.35.205.382.075.038.103.088.103.184 0 .092.025.142.113.219a.266.266 0 0 1 .091.169c.02.095.032.114.103.153.086.048.093.061.115.218.012.084.03.117.103.189.073.07.09.1.09.16 0 .073.006.082.15.211.031.028.059.08.066.123.006.042.017.1.022.13.005.03.045.082.088.116.06.049.081.083.092.149.01.067.036.107.115.184.09.086.102.109.102.181 0 .106.032.176.097.21.063.034.109.12.109.203 0 .092.027.131.122.174.09.04.095.053.11.235.006.087.019.12.054.144.106.073.147.124.133.167-.02.064.024.145.114.209.082.058.122.146.123.265 0 .039.021.072.072.113.052.04.081.087.103.162.03.1.049.126.178.242.048.043.057.067.057.156 0 .094.007.112.071.168.045.04.09.113.124.199.04.103.07.147.13.189.073.05.08.064.094.18.014.128.035.164.134.229.04.026.053.056.061.143.01.105.016.113.098.159.093.05.128.126.129.272 0 .071.048.142.096.142.038 0 .088.074.088.13 0 .101.06.21.134.245.072.035.079.05.102.22.01.071.032.111.098.179.068.07.087.106.096.183.01.088.02.101.103.15.095.055.1.067.133.27.01.057.03.086.093.128.045.03.087.077.094.105.018.07.09.07.09.002 0-.047-.031-.085-.17-.2-.042-.036-.06-.076-.073-.156-.017-.11-.061-.18-.127-.2-.026-.009-.041-.04-.05-.109-.018-.133-.047-.184-.145-.251-.08-.055-.086-.067-.095-.171-.008-.098-.02-.126-.095-.206-.07-.077-.085-.107-.085-.176 0-.088-.069-.184-.133-.184s-.113-.077-.114-.18c0-.145-.016-.181-.104-.24-.072-.047-.08-.06-.08-.14 0-.09 0-.09-.155-.233-.05-.047-.066-.081-.077-.17-.01-.093-.025-.124-.083-.177a.368.368 0 0 1-.106-.19c-.03-.106-.047-.133-.11-.17-.106-.063-.125-.095-.125-.205 0-.087-.01-.11-.092-.202-.058-.065-.093-.124-.093-.156 0-.078-.032-.124-.122-.174-.082-.047-.086-.055-.114-.24-.01-.07-.03-.101-.094-.152-.07-.057-.08-.075-.08-.153 0-.093-.038-.146-.146-.203-.061-.032-.1-.123-.1-.234 0-.082-.023-.12-.106-.171-.043-.027-.058-.055-.068-.132-.023-.174-.026-.181-.128-.232-.073-.038-.1-.063-.103-.102-.022-.206-.03-.227-.105-.303a.276.276 0 0 1-.092-.164c-.012-.073-.029-.098-.106-.152-.098-.07-.098-.069-.132-.245-.02-.095-.036-.127-.094-.17-.046-.036-.07-.072-.07-.103 0-.088-.043-.163-.146-.258-.078-.073-.1-.108-.1-.156 0-.094-.039-.185-.093-.22-.03-.02-.064-.08-.091-.163-.046-.137-.082-.184-.16-.207-.048-.015-.057-.035-.077-.181a.329.329 0 0 0-.092-.19c-.21-.241-.115-.358.352-.432a2.43 2.43 0 0 0 .32-.073c.065-.022.204-.054.31-.07.105-.018.228-.05.272-.073.044-.022.16-.05.259-.063a.569.569 0 0 0 .251-.07.292.292 0 0 1 .148-.05c.108 0 .276-.039.395-.092.056-.025.162-.057.235-.07a.796.796 0 0 0 .202-.065c.038-.022.162-.054.277-.072a1.53 1.53 0 0 0 .315-.082c.058-.027.168-.063.243-.08a.8.8 0 0 0 .18-.061.825.825 0 0 1 .186-.062c.078-.018.175-.05.215-.07a.96.96 0 0 1 .197-.063.825.825 0 0 0 .206-.072c.046-.026.139-.062.208-.08.127-.033.268-.09.49-.198.07-.033.157-.066.195-.073a.84.84 0 0 0 .171-.064 1.53 1.53 0 0 1 .205-.081.461.461 0 0 0 .147-.07.494.494 0 0 1 .154-.072.702.702 0 0 0 .163-.07.51.51 0 0 1 .135-.059.707.707 0 0 0 .174-.084.423.423 0 0 1 .115-.061.264.264 0 0 0 .092-.06.416.416 0 0 1 .12-.073.897.897 0 0 0 .143-.069c.05-.029.18-.098.287-.153a1.47 1.47 0 0 0 .266-.168 1.4 1.4 0 0 1 .232-.155.57.57 0 0 0 .213-.166c.03-.044.06-.08.068-.08a.52.52 0 0 0 .105-.078.99.99 0 0 1 .157-.114.225.225 0 0 0 .09-.084.205.205 0 0 1 .088-.08c.081-.039.125-.089.143-.163.009-.039.035-.066.08-.086.082-.033.106-.061.125-.143.017-.069.067-.133.104-.133.051 0 .133-.1.133-.163 0-.043.022-.083.07-.13.071-.072.08-.095.113-.317.015-.093.035-.143.075-.184a.745.745 0 0 0 .105-.164l.05-.107-.008-.652c-.007-.69-.015-.752-.107-.859a.415.415 0 0 1-.113-.268.405.405 0 0 0-.123-.31c-.051-.052-.082-.102-.082-.134 0-.053-.088-.144-.162-.167-.021-.007-.05-.04-.063-.072-.026-.06-.258-.28-.348-.328a.42.42 0 0 1-.099-.085c-.027-.033-.058-.06-.07-.06-.01 0-.088-.032-.172-.071a1.85 1.85 0 0 0-.165-.072c-.006 0-.077-.032-.157-.072a.964.964 0 0 0-.171-.071 1.17 1.17 0 0 1-.177-.06 1.474 1.474 0 0 0-.345-.085 1.262 1.262 0 0 1-.284-.065c-.064-.028-.202-.053-.452-.08a32.12 32.12 0 0 1-.555-.063c-.211-.028-9.701-.046-9.802-.019z"/></g><path fill="#fff" d="M.759 33v-8.727h3.443c.659 0 1.221.118 1.687.353a2.45 2.45 0 0 1 1.07.993c.247.427.37.928.37 1.505 0 .58-.124 1.078-.374 1.495-.25.415-.613.733-1.087.955-.472.221-1.043.332-1.713.332H1.849v-1.483h2.008c.352 0 .644-.048.877-.145.233-.096.407-.241.52-.434.117-.193.175-.434.175-.72 0-.29-.058-.534-.175-.733a1.072 1.072 0 0 0-.524-.452c-.233-.105-.527-.158-.882-.158H2.604V33H.759zm4.713-3.972L7.64 33H5.604l-2.122-3.972h1.99zM8.034 33v-8.727h5.88v1.521H9.88v2.08h3.733v1.52H9.879v2.085h4.052V33H8.034zm12.534-5.906a1.914 1.914 0 0 0-.251-.55 1.702 1.702 0 0 0-.925-.669 2.232 2.232 0 0 0-.652-.09c-.446 0-.838.111-1.176.333-.335.222-.597.544-.784.967-.188.42-.282.935-.282 1.543 0 .608.093 1.125.277 1.551.185.426.447.751.785.976.338.221.737.332 1.197.332.418 0 .774-.074 1.07-.221.298-.15.525-.363.681-.635.16-.273.24-.596.24-.968l.374.056h-2.25v-1.39h3.652v1.1c0 .767-.162 1.426-.486 1.977-.324.549-.77.972-1.338 1.27-.568.296-1.218.443-1.951.443-.819 0-1.537-.18-2.157-.54a3.755 3.755 0 0 1-1.449-1.548c-.343-.67-.515-1.466-.515-2.386 0-.707.102-1.338.307-1.892a4.042 4.042 0 0 1 .869-1.415c.372-.386.805-.68 1.3-.882a4.212 4.212 0 0 1 1.606-.303c.494 0 .955.073 1.38.218.427.142.805.344 1.134.605.333.261.604.572.814.933.21.358.346.753.405 1.185h-1.875zM23.31 33v-8.727h5.88v1.521h-4.035v2.08h3.733v1.52h-3.733v2.085h4.053V33H23.31zm14.048-8.727V33h-1.594l-3.797-5.493h-.064V33h-1.845v-8.727h1.62l3.766 5.488h.077v-5.488h1.837zm.592 1.521v-1.521h7.167v1.521h-2.672V33h-1.824v-7.206H37.95zm12.482.989a1.078 1.078 0 0 0-.439-.802c-.259-.19-.61-.285-1.053-.285-.3 0-.555.043-.762.128a1.073 1.073 0 0 0-.478.345.831.831 0 0 0-.162.503.718.718 0 0 0 .099.409c.073.116.174.217.302.303.128.082.276.154.443.217.168.06.347.11.537.153l.784.188c.381.085.73.199 1.049.34.318.143.593.317.826.525.233.207.414.452.541.733.131.281.198.604.2.967-.002.534-.139.997-.408 1.39-.267.389-.654.691-1.16.907-.502.213-1.109.32-1.819.32-.705 0-1.318-.108-1.84-.324-.52-.216-.927-.536-1.22-.96-.29-.425-.441-.952-.456-1.58h1.786c.02.293.104.537.251.733.15.193.351.34.601.439.253.096.538.145.857.145.312 0 .584-.046.814-.137a1.23 1.23 0 0 0 .54-.379.876.876 0 0 0 .193-.558.725.725 0 0 0-.175-.494 1.325 1.325 0 0 0-.503-.341 5.12 5.12 0 0 0-.805-.256l-.95-.239c-.736-.179-1.317-.458-1.744-.84-.426-.38-.637-.893-.634-1.537-.003-.529.137-.99.421-1.386.287-.394.68-.703 1.18-.924.5-.222 1.069-.333 1.705-.333.648 0 1.213.111 1.696.333.486.221.864.53 1.134.924.27.395.409.853.417 1.373h-1.768zm4.706-2.51h2.276l2.403 5.863h.102l2.404-5.863h2.275V33h-1.79v-5.68h-.072l-2.258 5.637h-1.22L57 27.298h-.072V33h-1.79v-8.727zM65.518 33v-8.727h5.78v1.521h-3.934v2.08h3.55v1.52h-3.55V33h-1.845zm6.42 0v-8.727h3.495c.642 0 1.177.095 1.606.285.429.19.751.455.967.793.216.335.324.721.324 1.159 0 .34-.068.64-.204.9a1.766 1.766 0 0 1-.563.63 2.305 2.305 0 0 1-.81.345v.085a1.991 1.991 0 0 1 1.645 1.01c.182.31.273.68.273 1.108 0 .463-.115.877-.345 1.24-.227.36-.564.646-1.01.857-.446.21-.996.315-1.65.315h-3.728zm1.845-1.509h1.505c.514 0 .889-.098 1.125-.294a.985.985 0 0 0 .353-.792c0-.242-.058-.455-.174-.64a1.187 1.187 0 0 0-.499-.434 1.708 1.708 0 0 0-.763-.158h-1.547v2.319zm0-3.566h1.368c.253 0 .478-.044.674-.132a1.12 1.12 0 0 0 .468-.384 1 1 0 0 0 .175-.592.957.957 0 0 0-.337-.763c-.221-.193-.537-.29-.946-.29h-1.402v2.16z"/><defs><clipPath id="a"><path fill="#fff" d="M29.5 0h21v21h-21z"/></clipPath></defs></svg>