<svg xmlns="http://www.w3.org/2000/svg" width="158" height="96" fill="none"><path fill="#fff" fill-rule="evenodd" d="M88.183 64.325H74V36.892h15.135v.04c6.35.539 11.351 6.456 11.351 13.676 0 4.825-2.233 9.068-5.609 11.513a.943.943 0 0 0-.087-.1l-8.379-8.38a.946.946 0 1 0-1.338 1.338l8.148 8.148a11.222 11.222 0 0 1-4.086 1.157v.04h-.952zM83.46 52.972a.946.946 0 1 0 0-1.892.946.946 0 0 0 0 1.892z" clip-rule="evenodd"/><path fill="#C9C9C9" fill-rule="evenodd" d="M71.433 36.892v6.622a.946.946 0 0 0 1.892 0v-6.622h4.73v18.919c0 6.792-6.142 12.297-13.717 12.297s-13.716-5.505-13.716-12.297V36.892h20.811z" clip-rule="evenodd"/><circle cx="72.379" cy="47.297" r=".946" fill="#121212"/><path fill="#fff" fill-rule="evenodd" d="M64.337 3.784c7.576 0 13.716 5.505 13.716 12.297V35H50.621V16.08c0-6.792 6.141-12.297 13.716-12.297zM61.891 9.39a.75.75 0 0 0-.39-1.448 10.878 10.878 0 0 0-7.782 8.128.75.75 0 0 0 1.464.327 9.379 9.379 0 0 1 6.708-7.007z" clip-rule="evenodd"/><path fill="#fff" d="m105.018 15.956-.709-1.178c-.149-.263-.284-.76-.284-1.05v-1.795a4.192 4.192 0 0 0-2.391-3.781 2.076 2.076 0 0 0-1.83-1.058 2.1 2.1 0 0 0-1.838 1.079 4.206 4.206 0 0 0-2.341 3.76v1.795c0 .29-.135.787-.284 1.043l-.716 1.185c-.284.475-.348 1-.17 1.482.17.476.574.845 1.099 1.022 1.376.468 2.824.695 4.271.695s2.895-.227 4.271-.688a1.7 1.7 0 0 0 1.064-1.029 1.683 1.683 0 0 0-.142-1.482zm-3.2 3.916a2.138 2.138 0 0 1-2.008 1.412c-.56 0-1.114-.227-1.504-.632a1.958 1.958 0 0 1-.496-.787c.092.014.184.021.283.035a14.105 14.105 0 0 0 1.731.113c.405 0 .809-.02 1.207-.056.149-.014.297-.021.439-.043l.348-.042zM1.58 76.818h4.741l5.007 12.216h.213l5.007-12.216h4.741V95H17.56V83.166h-.15L12.703 94.91h-2.539L5.46 83.121h-.151V95H1.58V76.818zM24.581 95V76.818h12.252v3.17h-8.408v4.332h7.777v3.17h-7.777v4.34h8.443V95H24.581zm21.878 0h-6.445V76.818h6.498c1.83 0 3.404.364 4.723 1.092 1.32.722 2.335 1.76 3.046 3.116.716 1.356 1.074 2.977 1.074 4.865 0 1.894-.358 3.522-1.074 4.883a7.381 7.381 0 0 1-3.063 3.134C49.892 94.636 48.306 95 46.459 95zm-2.601-3.294h2.441c1.137 0 2.093-.2 2.868-.603.781-.409 1.367-1.04 1.758-1.891.396-.859.595-1.965.595-3.32 0-1.344-.199-2.442-.595-3.294-.39-.853-.974-1.48-1.75-1.882-.775-.403-1.73-.604-2.867-.604h-2.45v11.594zM68.331 95 63.13 76.818h4.199l3.01 12.633h.15l3.32-12.633h3.596l3.312 12.66h.16l3.01-12.66h4.198L82.882 95h-3.747l-3.462-11.887h-.142L72.078 95H68.33zm23.239 0h-4.12l6.277-18.182h4.954L104.949 95h-4.12l-4.554-14.027h-.142L91.57 95zm-.258-7.147h9.73v3.001h-9.73v-3zm13.036-7.865v-3.17h14.932v3.17h-5.566V95h-3.8V79.988h-5.566zm32.729 3.196h-3.889a3.803 3.803 0 0 0-.435-1.341 3.413 3.413 0 0 0-.843-1.012 3.717 3.717 0 0 0-1.19-.64 4.549 4.549 0 0 0-1.447-.221c-.941 0-1.761.234-2.459.701-.699.462-1.24 1.136-1.625 2.024-.385.882-.577 1.953-.577 3.214 0 1.296.192 2.385.577 3.267.391.882.935 1.548 1.634 1.998.698.45 1.506.674 2.423.674a4.8 4.8 0 0 0 1.43-.204 3.75 3.75 0 0 0 1.18-.595c.344-.266.628-.589.853-.967.231-.38.39-.811.479-1.296l3.889.017a7.26 7.26 0 0 1-2.362 4.483c-.669.604-1.468 1.084-2.397 1.439-.923.349-1.968.524-3.134.524-1.621 0-3.072-.367-4.35-1.101-1.272-.734-2.279-1.797-3.018-3.187-.734-1.391-1.101-3.075-1.101-5.052 0-1.983.373-3.67 1.118-5.06.746-1.391 1.758-2.45 3.037-3.178 1.278-.734 2.716-1.101 4.314-1.101 1.054 0 2.03.148 2.93.444a7.44 7.44 0 0 1 2.406 1.296 6.67 6.67 0 0 1 1.704 2.068c.444.817.728 1.752.853 2.806zM139.958 95V76.818h3.844v7.502h7.804v-7.502h3.835V95h-3.835v-7.51h-7.804V95h-3.844z"/></svg>